<svg width="120" height="33" viewBox="0 0 120 33" fill="none" xmlns="http://www.w3.org/2000/svg">
<g id="Frame">
<path id="Vector" d="M21.6021 20.1762C21.6245 20.1317 21.6464 20.0869 21.6675 20.0425L23.9666 15.2188V14.0249L23.8068 13.8054C23.7765 13.764 20.777 9.64661 19.7607 8.29275C18.6351 6.79323 17.5513 6.12456 16.2463 6.12456C15.2285 6.12456 14.195 6.60798 13.1758 7.56135C12.9313 7.79093 12.7001 8.03422 12.4833 8.29004C12.2665 8.0342 12.0353 7.79089 11.7908 7.5613C10.7715 6.60793 9.73844 6.12451 8.72034 6.12451C7.41542 6.12451 6.3315 6.79318 5.20598 8.2927C4.18965 9.64661 1.1901 13.764 1.15988 13.8054L1 14.0249V15.2188L3.2986 20.0418C3.32007 20.087 3.34202 20.1319 3.36447 20.1765C3.96001 21.3598 4.8777 22.3511 6.012 23.0364C7.14361 23.7217 8.44171 24.0837 9.76496 24.0829H15.2016C16.5248 24.0837 17.8229 23.7217 18.9545 23.0364C20.0889 22.351 21.0066 21.3596 21.6021 20.1762ZM9.76506 22.414C7.69462 22.414 5.76824 21.2419 4.85751 19.4283C4.84044 19.3944 4.82368 19.3601 4.80698 19.3249L2.6703 14.8417V14.5681C3.3071 13.6946 5.66828 10.4584 6.54222 9.294C7.53474 7.97169 8.20025 7.79343 8.72034 7.79343C9.92677 7.79343 11.195 9.27663 11.581 9.84694L11.8292 10.2164H13.1375L13.3856 9.84694C13.7434 9.31418 15.0368 7.79343 16.2463 7.79343C16.7664 7.79343 17.4319 7.97169 18.4244 9.29405C19.2983 10.4583 21.6595 13.6946 22.2963 14.5681V14.8417L20.1593 19.3257C20.143 19.3601 20.1262 19.3944 20.1093 19.428C19.1984 21.2419 17.272 22.414 15.2016 22.414H9.76506Z" fill="url(#paint0_linear_6_275)" stroke="url(#paint1_linear_6_275)" stroke-width="1.5625"/>
<path id="Vector_2" d="M16.0553 11.0952L15.5295 11.6895C15.5173 11.7033 14.2604 13.0679 12.4835 13.0679C10.7005 13.0679 9.4474 11.7005 9.43748 11.6895L8.9117 11.0952L4.5459 14.5732L6.86308 19.2435L7.4611 19.1581C10.7924 18.6824 14.1745 18.6824 17.5059 19.1581L18.1039 19.2435L20.4211 14.5732L16.0553 11.0952ZM17.1417 17.4253C14.0485 17.0347 10.9184 17.0347 7.82522 17.4253L6.64108 15.0386L8.77291 13.3404C9.48148 13.9155 10.79 14.737 12.4835 14.737C14.177 14.737 15.4855 13.9155 16.1941 13.3404L18.3259 15.0387L17.1417 17.4253Z" fill="url(#paint2_linear_6_275)" stroke="url(#paint3_linear_6_275)" stroke-width="1.5625"/>
<path id="Vector_3" d="M18.0564 25.2065V26.8754C19.3288 26.8738 20.5652 26.4536 21.5747 25.6796C22.5842 24.9057 23.3105 23.8212 23.6415 22.5936L22.0275 22.1615C21.7923 23.0344 21.2759 23.8057 20.5581 24.356C19.8403 24.9064 18.9612 25.2053 18.0564 25.2065Z" fill="url(#paint4_linear_6_275)" stroke="url(#paint5_linear_6_275)" stroke-width="1.5625"/>
<path id="Vector_4" d="M36.376 24C34.648 24 33.156 23.624 31.9 22.872C30.652 22.12 29.688 21.068 29.008 19.716C28.336 18.364 28 16.792 28 15C28 13.208 28.336 11.636 29.008 10.284C29.688 8.932 30.652 7.88 31.9 7.128C33.156 6.376 34.648 6 36.376 6C38.104 6 39.592 6.376 40.84 7.128C42.096 7.88 43.06 8.932 43.732 10.284C44.412 11.636 44.752 13.208 44.752 15C44.752 16.792 44.412 18.364 43.732 19.716C43.06 21.068 42.096 22.12 40.84 22.872C39.592 23.624 38.104 24 36.376 24ZM36.376 20.928C37.472 20.944 38.384 20.708 39.112 20.22C39.84 19.732 40.384 19.04 40.744 18.144C41.112 17.248 41.296 16.2 41.296 15C41.296 13.8 41.112 12.76 40.744 11.88C40.384 11 39.84 10.316 39.112 9.828C38.384 9.34 37.472 9.088 36.376 9.072C35.28 9.056 34.368 9.292 33.64 9.78C32.912 10.268 32.364 10.96 31.996 11.856C31.636 12.752 31.456 13.8 31.456 15C31.456 16.2 31.636 17.24 31.996 18.12C32.364 19 32.912 19.684 33.64 20.172C34.368 20.66 35.28 20.912 36.376 20.928ZM45.9475 23.64V10.68H48.8275V13.848L48.5155 13.44C48.6835 12.992 48.9075 12.584 49.1875 12.216C49.4675 11.848 49.8115 11.544 50.2195 11.304C50.5315 11.112 50.8715 10.964 51.2395 10.86C51.6075 10.748 51.9875 10.68 52.3795 10.656C52.7715 10.624 53.1635 10.632 53.5555 10.68V13.728C53.1955 13.616 52.7755 13.58 52.2955 13.62C51.8235 13.652 51.3955 13.76 51.0115 13.944C50.6275 14.12 50.3035 14.356 50.0395 14.652C49.7755 14.94 49.5755 15.284 49.4395 15.684C49.3035 16.076 49.2355 16.52 49.2355 17.016V23.64H45.9475ZM57.9803 24C57.0523 24 56.2643 23.824 55.6163 23.472C54.9763 23.112 54.4883 22.636 54.1523 22.044C53.8243 21.444 53.6603 20.784 53.6603 20.064C53.6603 19.464 53.7523 18.916 53.9363 18.42C54.1203 17.924 54.4163 17.488 54.8243 17.112C55.2403 16.728 55.7963 16.408 56.4923 16.152C56.9723 15.976 57.5443 15.82 58.2083 15.684C58.8723 15.548 59.6243 15.42 60.4643 15.3C61.3043 15.172 62.2283 15.032 63.2363 14.88L62.0603 15.528C62.0603 14.76 61.8763 14.196 61.5083 13.836C61.1403 13.476 60.5243 13.296 59.6603 13.296C59.1803 13.296 58.6803 13.412 58.1603 13.644C57.6403 13.876 57.2763 14.288 57.0683 14.88L54.1163 13.944C54.4443 12.872 55.0603 12 55.9643 11.328C56.8683 10.656 58.1003 10.32 59.6603 10.32C60.8043 10.32 61.8203 10.496 62.7083 10.848C63.5963 11.2 64.2683 11.808 64.7243 12.672C64.9803 13.152 65.1323 13.632 65.1803 14.112C65.2283 14.592 65.2523 15.128 65.2523 15.72V23.64H62.3963V20.976L62.8043 21.528C62.1723 22.4 61.4883 23.032 60.7523 23.424C60.0243 23.808 59.1003 24 57.9803 24ZM58.6763 21.432C59.2763 21.432 59.7803 21.328 60.1883 21.12C60.6043 20.904 60.9323 20.66 61.1723 20.388C61.4203 20.116 61.5883 19.888 61.6763 19.704C61.8443 19.352 61.9403 18.944 61.9643 18.48C61.9963 18.008 62.0123 17.616 62.0123 17.304L62.9723 17.544C62.0043 17.704 61.2203 17.84 60.6203 17.952C60.0203 18.056 59.5363 18.152 59.1683 18.24C58.8003 18.328 58.4763 18.424 58.1963 18.528C57.8763 18.656 57.6163 18.796 57.4163 18.948C57.2243 19.092 57.0803 19.252 56.9843 19.428C56.8963 19.604 56.8523 19.8 56.8523 20.016C56.8523 20.312 56.9243 20.568 57.0683 20.784C57.2203 20.992 57.4323 21.152 57.7043 21.264C57.9763 21.376 58.3003 21.432 58.6763 21.432ZM74.9485 23.64C74.0525 23.808 73.1725 23.88 72.3085 23.856C71.4525 23.84 70.6845 23.692 70.0045 23.412C69.3325 23.124 68.8205 22.664 68.4685 22.032C68.1485 21.44 67.9805 20.84 67.9645 20.232C67.9485 19.616 67.9405 18.92 67.9405 18.144V7.08H71.2045V17.952C71.2045 18.456 71.2085 18.912 71.2165 19.32C71.2325 19.72 71.3165 20.04 71.4685 20.28C71.7565 20.736 72.2165 20.984 72.8485 21.024C73.4805 21.064 74.1805 21.032 74.9485 20.928V23.64ZM65.7325 13.2V10.68H74.9485V13.2H65.7325ZM81.7654 24C80.4614 24 79.3174 23.708 78.3334 23.124C77.3494 22.54 76.5814 21.736 76.0294 20.712C75.4854 19.68 75.2134 18.496 75.2134 17.16C75.2134 15.808 75.4934 14.62 76.0534 13.596C76.6134 12.564 77.3854 11.76 78.3694 11.184C79.3534 10.608 80.4854 10.32 81.7654 10.32C83.0694 10.32 84.2134 10.612 85.1974 11.196C86.1894 11.78 86.9614 12.588 87.5134 13.62C88.0654 14.644 88.3414 15.824 88.3414 17.16C88.3414 18.504 88.0614 19.692 87.5014 20.724C86.9494 21.748 86.1774 22.552 85.1854 23.136C84.2014 23.712 83.0614 24 81.7654 24ZM81.7654 20.952C82.8134 20.952 83.5934 20.6 84.1054 19.896C84.6254 19.184 84.8854 18.272 84.8854 17.16C84.8854 16.008 84.6214 15.088 84.0934 14.4C83.5734 13.712 82.7974 13.368 81.7654 13.368C81.0534 13.368 80.4694 13.528 80.0134 13.848C79.5574 14.168 79.2174 14.612 78.9934 15.18C78.7774 15.748 78.6694 16.408 78.6694 17.16C78.6694 18.32 78.9294 19.244 79.4494 19.932C79.9774 20.612 80.7494 20.952 81.7654 20.952ZM89.7803 23.64V10.68H92.6603V13.848L92.3483 13.44C92.5163 12.992 92.7403 12.584 93.0203 12.216C93.3003 11.848 93.6443 11.544 94.0523 11.304C94.3643 11.112 94.7043 10.964 95.0723 10.86C95.4403 10.748 95.8203 10.68 96.2123 10.656C96.6043 10.624 96.9963 10.632 97.3884 10.68V13.728C97.0283 13.616 96.6083 13.58 96.1283 13.62C95.6563 13.652 95.2283 13.76 94.8443 13.944C94.4603 14.12 94.1363 14.356 93.8723 14.652C93.6083 14.94 93.4083 15.284 93.2723 15.684C93.1363 16.076 93.0683 16.52 93.0683 17.016V23.64H89.7803ZM98.7104 8.88V6H101.974V8.88H98.7104ZM98.7104 23.64V10.68H101.974V23.64H98.7104ZM107.972 24C107.044 24 106.256 23.824 105.608 23.472C104.968 23.112 104.48 22.636 104.144 22.044C103.816 21.444 103.652 20.784 103.652 20.064C103.652 19.464 103.744 18.916 103.928 18.42C104.112 17.924 104.408 17.488 104.816 17.112C105.232 16.728 105.788 16.408 106.484 16.152C106.964 15.976 107.536 15.82 108.2 15.684C108.864 15.548 109.616 15.42 110.456 15.3C111.296 15.172 112.22 15.032 113.228 14.88L112.052 15.528C112.052 14.76 111.868 14.196 111.5 13.836C111.132 13.476 110.516 13.296 109.652 13.296C109.172 13.296 108.672 13.412 108.152 13.644C107.632 13.876 107.268 14.288 107.06 14.88L104.108 13.944C104.436 12.872 105.052 12 105.956 11.328C106.86 10.656 108.092 10.32 109.652 10.32C110.796 10.32 111.812 10.496 112.7 10.848C113.588 11.2 114.26 11.808 114.716 12.672C114.972 13.152 115.124 13.632 115.172 14.112C115.22 14.592 115.244 15.128 115.244 15.72V23.64H112.388V20.976L112.796 21.528C112.164 22.4 111.48 23.032 110.744 23.424C110.016 23.808 109.092 24 107.972 24ZM108.668 21.432C109.268 21.432 109.772 21.328 110.18 21.12C110.596 20.904 110.924 20.66 111.164 20.388C111.412 20.116 111.58 19.888 111.668 19.704C111.836 19.352 111.932 18.944 111.956 18.48C111.988 18.008 112.004 17.616 112.004 17.304L112.964 17.544C111.996 17.704 111.212 17.84 110.612 17.952C110.012 18.056 109.528 18.152 109.16 18.24C108.792 18.328 108.468 18.424 108.188 18.528C107.868 18.656 107.608 18.796 107.408 18.948C107.216 19.092 107.072 19.252 106.976 19.428C106.888 19.604 106.844 19.8 106.844 20.016C106.844 20.312 106.916 20.568 107.06 20.784C107.212 20.992 107.424 21.152 107.696 21.264C107.968 21.376 108.292 21.432 108.668 21.432Z" fill="white"/>
</g>
<defs>
<linearGradient id="paint0_linear_6_275" x1="1" y1="15.1037" x2="23.9666" y2="15.1037" gradientUnits="userSpaceOnUse">
<stop offset="0.03" stop-color="#FF5956"/>
<stop offset="0.96" stop-color="#EE1E38"/>
</linearGradient>
<linearGradient id="paint1_linear_6_275" x1="1" y1="15.1037" x2="23.9666" y2="15.1037" gradientUnits="userSpaceOnUse">
<stop offset="0.03" stop-color="#FF5956"/>
<stop offset="0.96" stop-color="#EE1E38"/>
</linearGradient>
<linearGradient id="paint2_linear_6_275" x1="4.5459" y1="15.1693" x2="20.4211" y2="15.1693" gradientUnits="userSpaceOnUse">
<stop offset="0.03" stop-color="#FF5956"/>
<stop offset="0.96" stop-color="#EE1E38"/>
</linearGradient>
<linearGradient id="paint3_linear_6_275" x1="4.5459" y1="15.1693" x2="20.4211" y2="15.1693" gradientUnits="userSpaceOnUse">
<stop offset="0.03" stop-color="#FF5956"/>
<stop offset="0.96" stop-color="#EE1E38"/>
</linearGradient>
<linearGradient id="paint4_linear_6_275" x1="18.0564" y1="24.5185" x2="23.6415" y2="24.5185" gradientUnits="userSpaceOnUse">
<stop offset="0.03" stop-color="#FF5956"/>
<stop offset="0.96" stop-color="#EE1E38"/>
</linearGradient>
<linearGradient id="paint5_linear_6_275" x1="18.0564" y1="24.5185" x2="23.6415" y2="24.5185" gradientUnits="userSpaceOnUse">
<stop offset="0.03" stop-color="#FF5956"/>
<stop offset="0.96" stop-color="#EE1E38"/>
</linearGradient>
</defs>
</svg>
