<svg width="250" height="200" viewBox="0 0 250 200" fill="none" xmlns="http://www.w3.org/2000/svg">
<g id="EmptyState">
<g id="Group 277">
<g id="Search">
<path id="Oval" d="M121.813 132.921C146.441 132.921 166.406 113.016 166.406 88.4606C166.406 63.9057 146.441 44 121.813 44C97.1845 44 77.2192 63.9057 77.2192 88.4606C77.2192 113.016 97.1845 132.921 121.813 132.921Z" fill="#15171C" stroke="url(#paint0_linear_1_1098)" stroke-width="2.5"/>
<g id="Oval_2">
<path fill-rule="evenodd" clip-rule="evenodd" d="M114.668 122.959C117.009 123.39 119.391 123.614 121.813 123.631C141.295 123.631 157.089 107.885 157.089 88.4606C157.089 69.0366 141.295 53.2903 121.813 53.2903C116.808 53.2903 112.047 54.3294 107.735 56.203C100.24 59.4589 94.1007 65.2348 90.3926 72.4573C87.928 77.2578 86.5376 82.6973 86.5376 88.4606C86.5376 93.6897 87.6822 98.6523 89.7352 103.113C91.2009 106.297 93.1297 109.226 95.4355 111.813" fill="#232429"/>
<path d="M114.668 122.959C117.009 123.39 119.391 123.614 121.813 123.631C141.295 123.631 157.089 107.885 157.089 88.4606C157.089 69.0366 141.295 53.2903 121.813 53.2903C116.808 53.2903 112.047 54.3294 107.735 56.203C100.24 59.4589 94.1007 65.2348 90.3926 72.4573C87.928 77.2578 86.5376 82.6973 86.5376 88.4606C86.5376 93.6897 87.6822 98.6523 89.7352 103.113C91.2009 106.297 93.1297 109.226 95.4355 111.813" stroke="url(#paint1_linear_1_1098)" stroke-width="2.5" stroke-linecap="round"/>
</g>
<path id="Oval_3" d="M99.5791 115.767C102.439 118.084 105.669 119.964 109.168 121.304" stroke="url(#paint2_linear_1_1098)" stroke-width="2.5" stroke-linecap="round"/>
<path id="Path-4" d="M158.42 123.631L166.407 131.594" stroke="url(#paint3_linear_1_1098)" stroke-width="2.5"/>
<path id="Rectangle" fill-rule="evenodd" clip-rule="evenodd" d="M165.116 130.307C162.597 132.819 162.597 136.892 165.116 139.404L179.872 154.116C182.392 156.628 186.477 156.628 188.996 154.116C191.516 151.604 191.516 147.531 188.996 145.019L174.24 130.307C171.721 127.795 167.636 127.795 165.116 130.307Z" fill="#414455" stroke="url(#paint4_linear_1_1098)" stroke-width="2.5"/>
<path id="Line" d="M171.731 132.921L186.374 147.52" stroke="#232429" stroke-width="2.5" stroke-linecap="round"/>
<path id="Oval-3" fill-rule="evenodd" clip-rule="evenodd" d="M113.161 73.1982C113.161 88.5908 125.676 101.069 141.115 101.069C144.148 101.069 147.068 100.588 149.802 99.6969C145.339 110.74 134.489 118.536 121.813 118.536C105.154 118.536 91.6484 105.071 91.6484 88.4608C91.6484 73.4099 102.737 60.9413 117.214 58.7333C114.642 62.9514 113.161 67.9023 113.161 73.1982Z" fill="#414455"/>
<path id="Shape" d="M122.478 63.9078C120.783 63.9078 119.127 64.0741 117.526 64.3911M112.687 65.8669C103.581 69.6822 97.1865 78.6587 97.1865 89.1243" stroke="#FFD9C7" stroke-width="2.5" stroke-linecap="round"/>
</g>
<path id="Line-8" d="M193.263 88.8288H182.38M201.682 78.5068H178.818H201.682ZM211 78.5068H208.043H211Z" stroke="#FFD9C7" stroke-width="2.5" stroke-linecap="round" stroke-linejoin="round"/>
<path id="Line-8_2" d="M73.4597 118.027H62.5765M67.2355 106.377H44.372H67.2355ZM36.619 106.377H31H36.619Z" stroke="#FFD9C7" stroke-width="2.5" stroke-linecap="round" stroke-linejoin="round"/>
</g>
</g>
<defs>
<linearGradient id="paint0_linear_1_1098" x1="77.2192" y1="88.4606" x2="166.406" y2="88.4606" gradientUnits="userSpaceOnUse">
<stop offset="0.03" stop-color="#FF5956"/>
<stop offset="0.96" stop-color="#EE1E38"/>
</linearGradient>
<linearGradient id="paint1_linear_1_1098" x1="86.5376" y1="88.4606" x2="157.089" y2="88.4606" gradientUnits="userSpaceOnUse">
<stop offset="0.03" stop-color="#FF5956"/>
<stop offset="0.96" stop-color="#EE1E38"/>
</linearGradient>
<linearGradient id="paint2_linear_1_1098" x1="99.5791" y1="118.536" x2="109.168" y2="118.536" gradientUnits="userSpaceOnUse">
<stop offset="0.03" stop-color="#FF5956"/>
<stop offset="0.96" stop-color="#EE1E38"/>
</linearGradient>
<linearGradient id="paint3_linear_1_1098" x1="158.42" y1="127.613" x2="166.407" y2="127.613" gradientUnits="userSpaceOnUse">
<stop offset="0.03" stop-color="#FF5956"/>
<stop offset="0.96" stop-color="#EE1E38"/>
</linearGradient>
<linearGradient id="paint4_linear_1_1098" x1="163.227" y1="142.212" x2="190.886" y2="142.212" gradientUnits="userSpaceOnUse">
<stop offset="0.03" stop-color="#FF5956"/>
<stop offset="0.96" stop-color="#EE1E38"/>
</linearGradient>
</defs>
</svg>
