<svg width="33" height="29" viewBox="0 0 33 29" fill="none" xmlns="http://www.w3.org/2000/svg">
<path d="M28.4427 19.2902C28.4722 19.2323 28.5011 19.1739 28.5289 19.116L31.556 12.8306V11.2749L31.3456 10.9889C31.3057 10.935 27.3564 5.56987 26.0182 3.80575C24.5362 1.85183 23.1092 0.980534 21.3909 0.980534C20.0508 0.980534 18.6901 1.61044 17.3481 2.85271C17.0262 3.15186 16.7218 3.46888 16.4363 3.80222C16.1509 3.46885 15.8465 3.15181 15.5245 2.85265C14.1825 1.61038 12.8223 0.980469 11.4818 0.980469C9.76362 0.980469 8.33646 1.85177 6.85452 3.80569C5.51636 5.56987 1.56695 10.935 1.52716 10.9889L1.31665 11.2749V12.8306L4.34314 19.1151C4.37141 19.174 4.40031 19.2325 4.42987 19.2906C5.214 20.8325 6.42229 22.1242 7.91578 23.0172C9.40574 23.9101 11.1149 24.3818 12.8572 24.3808H20.0154C21.7576 24.3818 23.4668 23.9101 24.9567 23.0172C26.4504 22.1241 27.6587 20.8323 28.4427 19.2902ZM12.8573 22.2062C10.1312 22.2062 7.59483 20.6789 6.39571 18.3157C6.37323 18.2715 6.35116 18.2268 6.32917 18.181L3.51588 12.3392V11.9827C4.35433 10.8445 7.46322 6.62766 8.61391 5.11041C9.92072 3.3874 10.797 3.15512 11.4818 3.15512C13.0702 3.15512 14.7401 5.08778 15.2483 5.83091L15.5751 6.31233H17.2977L17.6244 5.83091C18.0955 5.13671 19.7984 3.15512 21.3909 3.15512C22.0757 3.15512 22.952 3.3874 24.2588 5.11048C25.4094 6.62753 28.5183 10.8445 29.3568 11.9827V12.3392L26.5431 18.182C26.5216 18.2268 26.4995 18.2715 26.4772 18.3153C25.2779 20.6789 22.7414 22.2062 20.0154 22.2062H12.8573Z" fill="url(#paint0_linear_16_281)" stroke="url(#paint1_linear_16_281)" stroke-width="1.5625"/>
<path d="M21.1394 7.4574L20.4471 8.23179C20.431 8.24977 18.7761 10.0279 16.4365 10.0279C14.0889 10.0279 12.439 8.24612 12.4259 8.23179L11.7337 7.4574L5.98535 11.9893L9.03631 18.0749L9.8237 17.9636C14.2099 17.3438 18.663 17.3438 23.0494 17.9636L23.8367 18.0749L26.8877 11.9893L21.1394 7.4574ZM22.5698 15.7057C18.4971 15.1967 14.3758 15.1967 10.3031 15.7057L8.74401 12.5958L11.5509 10.383C12.4839 11.1323 14.2067 12.2028 16.4365 12.2028C18.6663 12.2028 20.3892 11.1323 21.3221 10.383L24.129 12.5959L22.5698 15.7057Z" fill="url(#paint2_linear_16_281)" stroke="url(#paint3_linear_16_281)" stroke-width="1.5625"/>
<path d="M23.7742 25.8448V28.0194C25.4495 28.0173 27.0774 27.4698 28.4066 26.4613C29.7358 25.4528 30.6921 24.0397 31.1279 22.4401L29.0028 21.8771C28.6931 23.0145 28.0132 24.0195 27.0681 24.7366C26.123 25.4538 24.9655 25.8432 23.7742 25.8448Z" fill="url(#paint4_linear_16_281)" stroke="url(#paint5_linear_16_281)" stroke-width="1.5625"/>
<defs>
<linearGradient id="paint0_linear_16_281" x1="1.31665" y1="12.6806" x2="31.556" y2="12.6806" gradientUnits="userSpaceOnUse">
<stop offset="0.03" stop-color="#FF5956"/>
<stop offset="0.96" stop-color="#EE1E38"/>
</linearGradient>
<linearGradient id="paint1_linear_16_281" x1="1.31665" y1="12.6806" x2="31.556" y2="12.6806" gradientUnits="userSpaceOnUse">
<stop offset="0.03" stop-color="#FF5956"/>
<stop offset="0.96" stop-color="#EE1E38"/>
</linearGradient>
<linearGradient id="paint2_linear_16_281" x1="5.98535" y1="12.7661" x2="26.8877" y2="12.7661" gradientUnits="userSpaceOnUse">
<stop offset="0.03" stop-color="#FF5956"/>
<stop offset="0.96" stop-color="#EE1E38"/>
</linearGradient>
<linearGradient id="paint3_linear_16_281" x1="5.98535" y1="12.7661" x2="26.8877" y2="12.7661" gradientUnits="userSpaceOnUse">
<stop offset="0.03" stop-color="#FF5956"/>
<stop offset="0.96" stop-color="#EE1E38"/>
</linearGradient>
<linearGradient id="paint4_linear_16_281" x1="23.7742" y1="24.9483" x2="31.1279" y2="24.9483" gradientUnits="userSpaceOnUse">
<stop offset="0.03" stop-color="#FF5956"/>
<stop offset="0.96" stop-color="#EE1E38"/>
</linearGradient>
<linearGradient id="paint5_linear_16_281" x1="23.7742" y1="24.9483" x2="31.1279" y2="24.9483" gradientUnits="userSpaceOnUse">
<stop offset="0.03" stop-color="#FF5956"/>
<stop offset="0.96" stop-color="#EE1E38"/>
</linearGradient>
</defs>
</svg>
