<svg width="345" height="321" xmlns="http://www.w3.org/2000/svg" xmlns:xlink="http://www.w3.org/1999/xlink" xml:space="preserve" overflow="hidden"><defs><clipPath id="clip0"><rect x="446" y="368" width="345" height="321"/></clipPath></defs><g clip-path="url(#clip0)" transform="translate(-446 -368)"><path d="M0.78121 162.58C-7.90717 81.2844 55.8026 8.82035 143.081 0.727491 230.359-7.36537 308.156 51.9775 316.844 133.274 319.048 153.901 316.574 174.73 309.581 194.409L291.886 188.954C316.45 121.161 276.784 47.8358 203.29 25.1774 129.795 2.51905 50.3029 39.1077 25.7388 106.9 19.4478 124.262 17.2213 142.658 19.2063 160.872Z" fill="#C00000" fill-rule="evenodd" transform="matrix(-0.176542 0.984293 0.984293 0.176542 477.236 344.879)"/><path d="M89.2198 104.854C65.0492 124.648 30.2883 119.964 11.579 94.392-7.13026 68.8203-2.703 32.0443 21.4676 12.2504 39.8203-2.77908 65.0872-4.09752 84.7488 8.94835L74.9292 25.5132C58.1711 13.7355 35.8173 18.9798 25.0005 37.2267 14.1838 55.4736 19.0002 79.8133 35.7583 91.5909 48.7835 100.745 65.7212 99.8267 77.8467 89.309Z" fill="#C00000" fill-rule="evenodd" transform="matrix(0.991073 0.133323 0.133323 -0.991073 523.74 581.345)"/><path d="M4.41906 136.043C-12.1031 80.2494 18.8492 21.3587 73.5528 4.50719 128.256-12.3443 185.996 19.2249 202.518 75.0189 208.366 94.7643 208.411 115.825 202.65 135.596L184.994 130.244C198.319 84.1269 172.621 35.6773 127.596 22.0288 82.5712 8.38031 35.269 34.7014 21.9437 80.8186 17.247 97.0733 17.2843 114.379 22.0509 130.612Z" fill="#C00000" fill-rule="evenodd" transform="matrix(-0.0631194 0.998006 0.998006 0.0631194 491.637 417.768)"/><path d="M0 16C-1.90969e-15 7.16344 6.71571-2.03701e-15 15-4.07402e-15 23.2842-8.14805e-15 29.9999 7.16344 29.9999 16 29.9999 24.8365 23.2842 32 15 32 6.71571 32-9.54847e-15 24.8365 0 16Z" fill="#C00000" fill-rule="evenodd" transform="matrix(-1 0 0 1 635 514)"/><path d="M638.857 371.323C720.551 369.74 788.6 439.527 790.848 527.197 793.096 614.866 728.692 687.22 646.997 688.803 636.273 689.01 625.55 687.966 615.015 685.688L619.055 663.163C686.879 678.302 752.549 630.984 765.733 557.475 778.918 483.966 734.623 412.102 666.799 396.963 657.791 394.952 648.617 394.022 639.443 394.188Z" fill="#C00000" fill-rule="evenodd"/><path d="M624.262 483.66C651.118 467.588 684.819 477.255 699.535 505.252 714.252 533.248 704.41 568.973 677.554 585.046 654.506 598.838 625.758 593.87 608.709 573.147L621.389 561.49C634.828 578.652 658.937 580.415 675.24 565.428 691.543 550.44 693.865 524.378 680.426 507.215 668.674 492.207 648.413 488.71 632.276 498.906Z" fill="#C00000" fill-rule="evenodd"/><path d="M631.657 428.555C689.3 420.226 743.002 459.306 751.604 515.842 760.207 572.379 720.452 624.963 662.81 633.292 645.9 635.736 628.63 634.113 612.486 628.563L618.671 611.181C664.103 626.684 713.72 603.32 729.494 558.995 745.268 514.67 721.227 466.169 675.796 450.666 662.522 446.136 648.331 444.808 634.432 446.794Z" fill="#C00000" fill-rule="evenodd"/></g></svg>