<svg width="24" height="24" viewBox="0 0 24 24" fill="none" xmlns="http://www.w3.org/2000/svg">
<path d="M3.91 17.18C3.72 17.18 3.53 17.11 3.38 16.96C2.01 15.58 1.25 13.76 1.25 11.83C1.25 7.82 4.5 4.56 8.5 4.56L14.57 4.58L13.48 3.54C13.18 3.25 13.17 2.78 13.46 2.48C13.75 2.18 14.22 2.17 14.52 2.46L16.96 4.8C17.18 5.01 17.25 5.34 17.14 5.62C17.03 5.9 16.75 6.09 16.44 6.09L8.5 6.07C5.33 6.07 2.75 8.66 2.75 11.84C2.75 13.37 3.35 14.82 4.44 15.91C4.73 16.2 4.73 16.68 4.44 16.97C4.29 17.11 4.1 17.18 3.91 17.18Z" fill="#FF5956"/>
<path d="M10 21.75C9.81002 21.75 9.63002 21.68 9.48002 21.54L7.04002 19.2C6.82002 18.99 6.75002 18.66 6.86002 18.38C6.98002 18.1 7.26002 17.95 7.56002 17.91L15.51 17.93C18.68 17.93 21.26 15.34 21.26 12.16C21.26 10.63 20.66 9.18 19.57 8.09C19.28 7.8 19.28 7.32 19.57 7.03C19.86 6.74 20.34 6.74 20.63 7.03C22 8.41 22.76 10.23 22.76 12.16C22.76 16.17 19.51 19.43 15.51 19.43L9.44002 19.41L10.53 20.45C10.83 20.74 10.84 21.21 10.55 21.51C10.39 21.67 10.2 21.75 10 21.75Z" fill="#FF5956"/>
</svg>
