<svg width="23" height="24" viewBox="0 0 23 24" fill="none" xmlns="http://www.w3.org/2000/svg">
<path opacity="0.4" d="M11.2283 22.0001C16.409 22.0001 20.6087 17.5229 20.6087 12.0001C20.6087 6.47721 16.409 2.00006 11.2283 2.00006C6.04766 2.00006 1.8479 6.47721 1.8479 12.0001C1.8479 17.5229 6.04766 22.0001 11.2283 22.0001Z" fill="white"/>
<path d="M14.0426 10.2301L11.3223 8.56006C10.6469 8.14006 9.8308 8.14006 9.15541 8.56006C8.48002 8.98006 8.07666 9.72006 8.07666 10.5601V13.9101C8.07666 14.7401 8.48002 15.4901 9.15541 15.9101C9.4931 16.1201 9.86832 16.2201 10.2342 16.2201C10.6094 16.2201 10.9752 16.1201 11.3129 15.9101L14.0332 14.2401C14.7086 13.8201 15.112 13.0801 15.112 12.2401C15.1307 11.4001 14.7274 10.6501 14.0426 10.2301Z" fill="white"/>
</svg>
